<?xml version="1.0" standalone="no"?>
<!DOCTYPE svg PUBLIC "-//W3C//DTD SVG 20010904//EN"
 "http://www.w3.org/TR/2001/REC-SVG-20010904/DTD/svg10.dtd">
<svg version="1.0" xmlns="http://www.w3.org/2000/svg"
 width="612.000000pt" height="612.000000pt" viewBox="0 0 612.000000 612.000000"
 preserveAspectRatio="xMidYMid meet">

<g transform="translate(0.000000,612.000000) scale(0.100000,-0.100000)"
fill="#000000" stroke="none">
<path d="M2949 5365 c-208 -29 -334 -80 -389 -157 -71 -98 -105 -311 -97 -613
9 -342 49 -472 172 -556 98 -68 294 -103 525 -96 371 11 530 94 619 319 54
135 66 212 65 408 -1 210 -24 339 -83 465 -61 129 -134 182 -311 222 -93 21
-381 26 -501 8z m-34 -226 c17 -21 23 -35 16 -42 -5 -5 -7 -15 -5 -22 7 -17
-50 -39 -81 -31 -18 5 -25 13 -27 34 -2 48 2 67 19 80 27 20 49 14 78 -19z m1
-220 c11 -10 27 -19 35 -19 16 0 77 -60 81 -81 2 -7 9 -20 16 -27 6 -7 12 -22
12 -32 0 -10 4 -21 9 -25 13 -7 3 -127 -11 -136 -6 -4 -8 -11 -4 -17 3 -6 1
-14 -4 -17 -6 -4 -16 -18 -21 -32 -5 -14 -18 -27 -29 -30 -11 -3 -20 -11 -20
-19 0 -15 -30 -34 -55 -34 -9 0 -23 -7 -31 -15 -27 -26 -174 -13 -174 16 0 5
-10 9 -22 9 -26 1 -58 22 -58 38 0 6 -8 13 -18 16 -17 6 -44 49 -58 96 -12 38
-12 113 -1 128 5 6 7 12 3 12 -3 0 3 16 14 37 23 43 84 103 105 103 8 0 15 4
15 10 0 12 35 31 75 41 44 11 117 0 141 -22z m852 -108 c4 -38 -9 -51 -50 -51
-17 0 -28 -5 -28 -13 0 -15 -40 -37 -68 -37 -38 -1 63 -39 111 -42 l52 -3 -3
-35 c-1 -19 -7 -39 -11 -43 -6 -6 -34 -4 -68 3 -32 6 -105 15 -163 19 -121 9
-150 16 -150 37 0 8 -4 14 -10 14 -20 0 -9 24 26 56 28 24 50 34 90 39 30 3
54 11 54 16 0 12 62 39 90 39 11 0 29 9 41 21 14 14 30 19 52 17 28 -3 32 -7
35 -37z m-248 -541 c0 -6 -4 -18 -8 -28 -5 -9 -20 -39 -33 -66 -27 -56 -129
-166 -154 -166 -8 0 -18 -7 -21 -15 -10 -24 -75 -37 -168 -34 -70 3 -89 7 -97
22 -6 9 -16 17 -24 17 -16 0 -73 53 -92 85 -33 55 -67 161 -57 177 3 5 87 6
187 3 100 -3 223 -2 272 3 129 13 195 14 195 2z"/>
<path d="M2737 4769 c-40 -31 -60 -81 -52 -128 3 -22 13 -42 21 -45 8 -3 14
-12 14 -19 0 -9 18 -19 44 -26 53 -13 136 -4 136 15 0 7 9 18 20 24 11 6 18
15 14 21 -3 5 -1 15 4 22 6 7 8 24 5 39 -4 19 -9 25 -22 21 -9 -4 -20 -12 -24
-20 -22 -37 -120 16 -116 63 6 58 -4 65 -44 33z"/>
<path d="M4383 5120 c-14 -5 -26 -23 -32 -47 -22 -83 -43 -172 -60 -257 -18
-87 -18 -89 1 -94 17 -4 16 -7 -11 -18 -17 -7 -31 -17 -31 -23 0 -5 -23 6 -50
24 -58 39 -111 52 -146 36 -27 -12 -24 26 -26 -358 -1 -222 -1 -222 26 -277
62 -128 224 -240 382 -267 91 -16 188 0 261 41 45 26 57 40 87 102 49 99 107
329 110 435 3 75 6 85 35 122 18 23 42 58 54 80 12 21 41 63 65 94 54 72 65
100 50 132 -22 49 -131 105 -168 85 -9 -5 -39 -42 -66 -82 -75 -110 -117 -168
-120 -165 -5 5 29 102 41 117 19 24 65 136 65 157 0 55 -146 117 -198 85 -6
-5 -27 -45 -45 -90 -19 -44 -38 -87 -44 -94 -6 -7 -16 -30 -22 -50 -7 -21 -17
-41 -23 -45 -7 -4 -9 0 -5 10 3 8 9 33 13 54 3 21 15 71 26 110 10 40 18 90
16 110 -3 32 -8 41 -38 55 -44 21 -118 30 -147 18z m32 -60 c3 -5 -1 -10 -9
-10 -9 0 -16 5 -16 10 0 6 4 10 9 10 6 0 13 -4 16 -10z m-55 -164 c0 -11 -19
-15 -25 -6 -3 5 1 10 9 10 9 0 16 -2 16 -4z m105 -27 c11 -11 -48 -1 -80 13
-13 5 -4 6 25 2 25 -3 49 -10 55 -15z m-2 -28 c16 -16 -32 -13 -68 5 l-30 14
44 -4 c24 -2 48 -9 54 -15z m246 -41 c8 0 12 -2 9 -5 -8 -8 -98 18 -98 28 0 5
-7 7 -15 3 -9 -3 -15 0 -15 9 0 11 12 9 53 -10 28 -14 58 -25 66 -25z m-39
-16 c22 -9 40 -20 40 -25 0 -12 2 -12 -53 7 -26 9 -44 20 -41 25 7 12 7 12 54
-7z m170 -64 c-18 -11 -22 -7 -14 14 5 13 10 14 18 6 8 -8 7 -13 -4 -20z m76
-38 c-6 -6 -56 29 -56 39 0 5 13 0 30 -12 16 -13 28 -24 26 -27z m-549 32 c-3
-3 -12 -4 -19 -1 -8 3 -5 6 6 6 11 1 17 -2 13 -5z m60 -10 c-3 -3 -12 -4 -19
-1 -8 3 -5 6 6 6 11 1 17 -2 13 -5z m478 -37 c19 -13 32 -27 28 -30 -7 -8 -83
33 -83 45 0 14 20 9 55 -15z m-332 -111 c48 -18 74 -41 98 -88 25 -49 24 -94
-3 -148 -33 -64 -67 -85 -136 -84 -119 0 -177 68 -173 202 1 42 52 98 106 117
50 17 60 18 108 1z"/>
<path d="M3887 4904 c-17 -64 -17 -74 0 -74 13 0 14 -3 5 -12 -8 -8 -8 -15 -1
-24 7 -8 7 -14 -1 -19 -6 -4 -10 -56 -10 -135 0 -93 -5 -143 -16 -177 -37
-108 -73 -237 -68 -243 12 -11 65 66 89 130 56 145 76 311 51 408 -10 35 -18
78 -20 95 -1 18 -7 41 -13 51 -10 19 -11 19 -16 0z"/>
<path d="M3515 3884 c-170 -108 -408 -165 -602 -145 -141 15 -215 36 -361 103
-46 21 -88 38 -94 38 -23 0 34 -47 101 -83 269 -145 650 -137 955 22 58 30 60
30 77 12 10 -10 15 -22 11 -25 -3 -4 1 -4 9 -1 16 6 134 -30 157 -48 7 -5 14
-8 17 -6 3 4 -206 150 -224 156 -3 1 -24 -9 -46 -23z"/>
<path d="M4020 3650 c-14 -4 -37 -11 -52 -14 -20 -5 -30 -15 -36 -39 -8 -30
-11 -32 -58 -35 l-49 -3 -38 -102 c-21 -56 -48 -128 -60 -159 -12 -31 -18 -60
-13 -65 4 -4 31 -9 59 -9 29 -1 60 -5 70 -9 22 -9 107 1 121 15 6 6 25 10 43
10 40 0 93 21 112 43 7 10 21 17 30 17 9 0 34 14 55 30 22 17 49 30 61 30 38
0 83 21 99 44 60 92 0 191 -147 240 -50 17 -155 20 -197 6z"/>
<path d="M2169 3601 c8 -15 9 -27 1 -40 -5 -11 -10 -26 -10 -34 0 -8 -16 -31
-35 -51 -19 -21 -35 -46 -35 -57 0 -10 -6 -19 -13 -19 -13 0 -54 -68 -50 -82
2 -4 -6 -12 -16 -17 -21 -12 -52 -56 -56 -80 -2 -11 -11 -15 -34 -13 -17 1
-31 -2 -31 -8 0 -6 66 -75 147 -154 113 -111 151 -142 161 -134 7 6 10 19 7
29 -3 10 1 30 11 44 9 14 13 25 9 25 -3 0 8 14 25 31 17 17 34 44 37 60 3 16
12 29 19 29 8 0 14 5 14 10 0 20 29 10 36 -12 7 -22 8 -22 20 9 10 22 11 40 4
57 -6 18 -5 28 6 36 22 19 18 37 -32 129 -59 108 -136 220 -170 245 -26 18
-26 18 -15 -3z"/>
<path d="M2500 2745 c0 -7 61 -37 66 -33 2 3 -12 12 -31 21 -19 9 -35 15 -35
12z"/>
<path d="M2167 2551 c-25 -73 -123 -215 -211 -308 -120 -128 -227 -201 -299
-206 -24 -2 -27 -5 -22 -27 11 -42 47 -120 56 -120 5 0 6 -6 3 -14 -8 -21 114
-325 170 -424 16 -28 24 -33 45 -29 20 4 31 -1 48 -21 l21 -27 37 20 c56 29
69 55 62 124 -2 32 -11 69 -18 82 -25 45 -38 92 -29 108 14 27 0 68 -28 82
l-27 13 27 4 c14 2 31 9 36 15 5 7 29 75 53 152 44 146 59 178 59 132 0 -39
27 -87 49 -87 12 0 21 -13 30 -42 7 -24 28 -73 47 -110 18 -37 34 -75 34 -85
0 -15 1 -15 13 -1 7 10 35 18 71 21 96 9 119 35 101 113 l-7 31 72 18 c69 17
162 17 225 -1 19 -5 20 -1 19 43 -1 26 2 56 7 65 5 10 10 35 12 57 l2 40 38
-40 c31 -32 42 -38 53 -28 12 9 11 15 -5 38 -28 38 -101 105 -141 129 -32 19
-246 112 -258 112 -2 0 -2 -9 1 -20 3 -11 -2 -34 -10 -51 -10 -19 -13 -42 -9
-64 4 -20 2 -35 -4 -37 -6 -2 -13 -26 -14 -53 -2 -28 -6 -58 -10 -67 -3 -10
-8 -25 -11 -34 -6 -18 -25 -9 -25 11 0 18 -88 217 -99 225 -8 5 -20 32 -98
217 -21 51 -40 93 -43 93 -3 0 -13 -22 -23 -49z m123 -539 c0 -4 -9 -13 -20
-20 -21 -13 -40 -9 -40 8 0 7 10 11 53 19 4 0 7 -2 7 -7z m-393 -188 c-3 -3
-12 -4 -19 -1 -8 3 -5 6 6 6 11 1 17 -2 13 -5z m46 -11 c-7 -2 -19 -2 -25 0
-7 3 -2 5 12 5 14 0 19 -2 13 -5z m86 -176 c0 -21 -1 -21 -9 -2 -12 28 -12 37
0 30 6 -3 10 -16 9 -28z m-30 -28 c-8 -5 -27 -9 -44 -8 l-30 0 35 30 c34 29
35 29 44 9 7 -16 6 -24 -5 -31z"/>
<path d="M3384 2315 c-38 -26 -104 -81 -146 -123 l-77 -76 4 -59 c3 -32 8 -63
11 -68 3 -6 0 -17 -8 -26 -11 -15 -11 -16 7 -9 102 42 176 58 267 60 55 0 90
4 82 9 -9 5 -14 24 -14 52 0 24 -4 46 -9 49 -5 3 -9 26 -9 51 -1 25 -4 51 -8
57 -4 6 -9 34 -11 62 -2 28 -8 55 -12 59 -5 4 -39 -13 -77 -38z"/>
<path d="M3001 1088 c-1 -16 4 -28 9 -28 12 0 12 8 0 35 -8 18 -9 17 -9 -7z"/>
<path d="M2990 996 c0 -59 -8 -62 -222 -70 -262 -9 -536 -37 -693 -72 -67 -14
-71 -17 -84 -52 -21 -59 -25 -145 -7 -179 18 -36 102 -77 203 -99 97 -22 381
-30 496 -14 160 22 273 65 295 115 25 55 26 124 1 202 -20 64 -21 76 -8 83 9
6 15 5 18 -3 2 -7 8 -15 14 -18 5 -4 10 -42 11 -86 1 -94 14 -119 78 -151 190
-94 651 -106 850 -20 71 30 83 49 83 127 0 60 -4 74 -37 128 -21 34 -38 70
-38 82 0 20 -4 21 -153 21 -168 0 -410 -20 -612 -50 -148 -22 -160 -19 -171
52 -8 47 -24 50 -24 4z m509 -153 c40 -50 9 -141 -32 -95 -23 26 -39 73 -32
99 7 31 38 29 64 -4z m-1009 -102 c5 -11 10 -34 10 -51 0 -50 -16 -70 -57 -70
l-35 0 4 54 c3 30 10 62 17 70 18 22 48 20 61 -3z"/>
</g>
</svg>
