<svg version="1.1" id="Layer_1" xmlns="http://www.w3.org/2000/svg" xmlns:xlink="http://www.w3.org/1999/xlink" x="0px" y="0px"
	 width="100%" viewBox="0 0 64 64" enable-background="new 0 0 64 64" xml:space="preserve">
<path fill="#000000" opacity="1.000000" stroke="none" 
	d="
M46.001724,65.000000 
	C30.667978,65.000000 15.834697,65.000000 1.001061,65.000000 
	C1.000708,43.667213 1.000708,22.334427 1.000354,1.001230 
	C22.332710,1.000820 43.665421,1.000820 64.998596,1.000410 
	C64.999069,22.332636 64.999069,43.665272 64.999535,64.998955 
	C58.834064,65.000000 52.668129,65.000000 46.001724,65.000000 
M11.086129,27.032333 
	C5.873117,28.568720 7.091835,32.885761 7.027156,36.582169 
	C6.971355,39.771191 8.636767,41.607742 11.979227,42.829113 
	C12.054634,50.037388 15.021050,53.017174 22.180990,52.993053 
	C27.777306,52.974205 33.373402,52.890957 39.866989,52.973595 
	C51.400074,54.271805 54.575562,49.233662 54.888046,41.972321 
	C61.275902,37.190197 60.937679,30.169144 54.021015,26.179935 
	C53.951252,19.312122 50.677559,16.021498 43.941757,15.992510 
	C40.961002,15.979683 37.980579,15.888341 35.003860,15.055713 
	C35.468456,14.052855 36.279636,13.065663 36.325821,12.043893 
	C36.423328,9.886795 36.740520,7.330612 35.735477,5.695471 
	C35.186283,4.801969 31.029205,4.702726 30.429668,5.573890 
	C29.341003,7.155776 29.456152,9.738155 29.532429,11.886503 
	C29.579691,13.217592 30.481600,14.518335 30.205105,15.979186 
	C29.132133,16.041521 28.059162,16.103855 26.094940,16.018681 
	C14.532063,15.952687 12.337932,17.642313 11.086129,27.032333 
z"/>
<path fill="#37D0EE" opacity="1.000000" stroke="none" 
	d="
M26.986191,16.166191 
	C28.059162,16.103855 29.132133,16.041521 30.999668,15.968124 
	C32.862823,15.915588 33.931416,15.874115 35.000008,15.832642 
	C37.980579,15.888341 40.961002,15.979683 43.941757,15.992510 
	C50.677559,16.021498 53.951252,19.312122 54.031288,27.043337 
	C53.972919,31.264627 53.904278,34.622517 53.500629,38.058704 
	C48.880196,42.877869 45.353748,48.397236 39.434647,51.473305 
	C39.126690,51.633350 39.117748,52.368774 38.969597,52.836323 
	C33.373402,52.890957 27.777306,52.974205 22.180990,52.993053 
	C15.021050,53.017174 12.054634,50.037388 11.968699,41.960670 
	C12.027318,37.728592 12.096465,34.364952 12.507275,30.922951 
	C14.232612,28.800127 16.326483,26.910807 16.815779,24.670967 
	C17.395418,22.017559 18.466497,21.508589 20.850471,20.793489 
	C23.151356,20.103312 24.960836,17.774916 26.986191,16.166191 
M46.129913,32.304977 
	C44.332508,31.790787 42.369331,30.620031 40.801682,31.015833 
	C39.903259,31.242668 39.054096,34.119003 39.316113,35.602322 
	C39.483566,36.550278 42.466274,38.057632 42.896461,37.711323 
	C44.398678,36.501995 45.339607,34.595455 46.129913,32.304977 
M19.046335,33.625366 
	C19.218143,36.523273 20.422550,38.572098 23.609055,37.539349 
	C24.898115,37.121567 26.494202,35.466267 26.608494,34.248180 
	C26.714167,33.121975 25.034033,30.830826 24.126554,30.823746 
	C22.463747,30.810768 20.790756,32.102283 19.046335,33.625366 
z"/>
<path fill="#2FB2CC" opacity="1.000000" stroke="none" 
	d="
M39.418293,52.904961 
	C39.117748,52.368774 39.126690,51.633350 39.434647,51.473305 
	C45.353748,48.397236 48.880196,42.877869 53.559311,38.458206 
	C54.023758,39.852699 54.094509,40.925987 54.165264,41.999275 
	C54.575562,49.233662 51.400074,54.271805 39.418293,52.904961 
z"/>
<path fill="#73DEF3" opacity="1.000000" stroke="none" 
	d="
M26.540565,16.092436 
	C24.960836,17.774916 23.151356,20.103312 20.850471,20.793489 
	C18.466497,21.508589 17.395418,22.017559 16.815779,24.670967 
	C16.326483,26.910807 14.232612,28.800127 12.446085,30.525423 
	C11.973637,29.137569 11.904042,28.068882 11.834448,27.000195 
	C12.337932,17.642313 14.532063,15.952687 26.540565,16.092436 
z"/>
<path fill="#9C34C2" opacity="1.000000" stroke="none" 
	d="
M35.001934,15.444178 
	C33.931416,15.874115 32.862823,15.915588 31.397053,15.894880 
	C30.481600,14.518335 29.579691,13.217592 29.532429,11.886503 
	C29.456152,9.738155 29.341003,7.155776 30.429668,5.573890 
	C31.029205,4.702726 35.186283,4.801969 35.735477,5.695471 
	C36.740520,7.330612 36.423328,9.886795 36.325821,12.043893 
	C36.279636,13.065663 35.468456,14.052855 35.001934,15.444178 
z"/>
<path fill="#9C34C2" opacity="1.000000" stroke="none" 
	d="
M11.460289,27.016264 
	C11.904042,28.068882 11.973637,29.137569 12.104422,30.603783 
	C12.096465,34.364952 12.027318,37.728592 11.895582,41.545868 
	C8.636767,41.607742 6.971355,39.771191 7.027156,36.582169 
	C7.091835,32.885761 5.873117,28.568720 11.460289,27.016264 
z"/>
<path fill="#9C34C2" opacity="1.000000" stroke="none" 
	d="
M54.526657,41.985798 
	C54.094509,40.925987 54.023758,39.852699 53.894318,38.379906 
	C53.904278,34.622517 53.972919,31.264627 54.104176,27.453394 
	C60.937679,30.169144 61.275902,37.190197 54.526657,41.985798 
z"/>
<path fill="#9A36C3" opacity="1.000000" stroke="none" 
	d="
M46.311867,32.629410 
	C45.339607,34.595455 44.398678,36.501995 42.896461,37.711323 
	C42.466274,38.057632 39.483566,36.550278 39.316113,35.602322 
	C39.054096,34.119003 39.903259,31.242668 40.801682,31.015833 
	C42.369331,30.620031 44.332508,31.790787 46.311867,32.629410 
z"/>
<path fill="#9B36C3" opacity="1.000000" stroke="none" 
	d="
M19.084173,33.237617 
	C20.790756,32.102283 22.463747,30.810768 24.126554,30.823746 
	C25.034033,30.830826 26.714167,33.121975 26.608494,34.248180 
	C26.494202,35.466267 24.898115,37.121567 23.609055,37.539349 
	C20.422550,38.572098 19.218143,36.523273 19.084173,33.237617 
z"/>
</svg>